PathFileType	4	(X/Y/Z)	C:/Users/beibeiliu/ov580/test_trc/capture2\sequence.22_training_dense_left.trc
DataRate	CameraRate	NumFrames	NumMarkers	Units	OrigDataRate	OrigDataStartFrame	OrigNumFrames
120	120	14	19	mm	120	191	380
Frame#	Time	ThumbCMC			ThumbMCP			ThumbIP			ThumbTip			IndexMCP			IndexPIP			IndexTip			MiddleMCP			MiddlePIP			MiddleTip			RingMCP			RingPIP			RingTip			PinkyMCP			PinkyPIP			PinkyTip			BackHand1			BackHand2			BackHand3	
		X0	Y0	Z0	X1	Y1	Z1	X2	Y2	Z2	X3	Y3	Z3	X4	Y4	Z4	X5	Y5	Z5	X6	Y6	Z6	X7	Y7	Z7	X8	Y8	Z8	X9	Y9	Z9	X10	Y10	Z10	X11	Y11	Z11	X12	Y12	Z12	X13	Y13	Z13	X14	Y14	Z14	X15	Y15	Z15	X16	Y16	Z16	X17	Y17	Z17	X18	Y18	Z18	
190	1.58333	-173.077	77.3482	-17.8856	-154.572	87.4016	-40.8006	-144.911	92.0693	-65.1226	-134.745	90.101	-84.8461	-142.618	56.142	-76.1957	-116.555	71.774	-72.3059	-132.094	76.5601	-40.5138	-124.105	44.4787	-68.1634	-107.337	69.2763	-52.8848	-130.193	66.4421	-24.8713	-112.243	32.124	-53.8925	-101.271	58.9286	-40.9856	-124.962	60.6693	-14.6366	-113.037	10.5095	-44.1212	-93.1085	15.6796	-58.3887	-72.5092	15.6129	-75.654	-153.772	11.8404	-24.071	-167.515	16.7997	3.59256	-182.064	41.1328	-19.4638	
191	1.59167	-173.336	69.1638	-14.917	-160.916	84.9034	-33.7187	-152.443	90.2922	-57.9872	-140.414	87.5894	-80.717	-142.906	56.6622	-75.027	-121.243	78.3281	-70.7661	-132.51	76.4047	-39.0363	-124.387	46.8589	-66.8513	-107.242	70.1531	-53.1998	-133.372	67.4104	-23.1547	-112.399	41.6288	-56.863	-101.961	64.2568	-37.6776	-125.188	62.0183	-13.7607	-108.085	16.7057	-46.0311	-90.6685	19.9314	-57.8499	-72.2269	23.8876	-77.4967	-148.939	9.69003	-21.2912	-161.179	13.1606	5.61743	-175.917	32.204	-14.7996	
192	1.6	-175.562	67.9235	-9.50258	-163.807	82.196	-33.1898	-155.314	85.7173	-57.5458	-146.236	90.14	-81.142	-143.561	56.8147	-75.087	-123.683	76.5554	-70.6856	-137.351	79.5451	-37.5975	-125.042	46.9213	-64.3217	-109.294	72.5133	-51.6416	-130.615	68.4196	-21.4303	-108.165	43.0076	-53.4194	-102.204	69.2309	-37.0823	-128.084	64.7259	-14.1651	-99.8768	17.6982	-42.7743	-85.7451	24.0659	-56.8939	-69.7356	26.2353	-76.3491	-142.694	10.3052	-15.8084	-156.803	13.69	12.3511	-172.317	29.0749	-12.3091	
193	1.60833	-174.871	62.1457	-3.60559	-161.751	76.8887	-26.9193	-156.581	82.9231	-55.1917	-151.516	88.2727	-76.0304	-142.558	55.8076	-72.8542	-127.887	79.8803	-68.4873	-133.983	77.1408	-34.1585	-121.565	52.1746	-63.8551	-110.153	75.5721	-50.2334	-129.377	66.7322	-18.8732	-104.313	46.3246	-52.1271	-102.921	72.0952	-35.9871	-121.288	66.2409	-11.0535	-99.1901	22.5506	-41.9407	-82.085	29.3755	-57.3009	-66.3426	34.258	-79.6216	-132.532	8.93017	-16.3199	-144.908	6.3973	14.8676	-167.51	24.968	-10.3239	
194	1.61667	-167.942	56.0029	-2.41626	-162.352	73.6901	-24.4744	-157.566	80.3476	-47.0891	-149.806	81.4717	-72.0924	-140.362	52.9912	-67.9905	-127.698	80.7286	-63.3246	-133.351	80.2584	-33.5411	-121.345	51.214	-60.7153	-111.46	78.5147	-45.4102	-126.273	67.1198	-15.8466	-103.738	44.7659	-49.1199	-99.2993	72.7185	-35.4492	-122.512	64.2129	-7.53129	-92.5077	24.3332	-40.0095	-79.6331	36.2658	-58.7464	-66.8054	40.9675	-78.5452	-126.785	7.70645	-10.8977	-137.489	8.00557	18.1233	-160.113	19.6154	-3.81803	
195	1.625	-165.749	52.264	4.91789	-160.292	68.6801	-17.9277	-159.702	75.3944	-46.3271	-154.474	80.9195	-66.2195	-141.283	49.4565	-63.641	-127.29	79.7039	-60.2865	-133.506	76.0597	-29.2099	-117.846	51.0169	-58.5899	-108.634	77.5315	-46.0584	-128.599	65.2283	-12.8778	-99.2069	46.0975	-45.807	-97.6122	74.2727	-32.1697	-116.761	65.783	-4.88043	-87.8908	28.2342	-40.2337	-79.3608	37.7939	-54.6522	-67.2753	47.817	-77.9002	-120.906	6.50832	-9.89151	-130.392	6.03218	17.4491	-152.965	15.4672	-5.23982	
196	1.63333	-160.723	46.5036	7.32903	-159.188	64.5387	-13.4265	-160.705	73.4596	-40.0747	-156.244	76.9778	-67.8699	-140.564	48.8491	-61.3081	-128.186	76.0913	-59.9434	-131.92	71.8423	-25.1782	-116.765	48.3238	-54.4303	-110.122	78.2169	-39.4617	-130.114	64.5231	-9.99704	-98.3627	49.2529	-45.0576	-104.081	76.4295	-29.0866	-119.266	63.858	-3.29593	-85.7604	30.384	-37.5256	-76.0006	41.814	-54.4494	-64.3125	52.0077	-74.6069	-113.16	6.13159	-6.66855	-122.592	2.01502	22.3226	-151.125	13.4612	1.23657	
197	1.64167	-162.653	43.3192	8.81922	-158.598	61.4736	-10.4865	-158.691	68.1463	-39.4124	-158.029	74.3833	-62.5891	-139.217	49.221	-60.1299	-129.595	77.2997	-53.2285	-134.723	71.1434	-23.1968	-113.902	48.9428	-52.0734	-114.884	78.6571	-41.4172	-128.906	63.2991	-7.14475	-98.8094	50.2106	-43.0779	-103.493	76.1502	-28.0408	-115.223	61.9493	-0.0287765	-83.0441	32.3743	-36.4097	-74.1438	45.8868	-52.2133	-65.2212	53.5311	-71.6788	-110.404	7.00001	-6.27149	-117.936	3.47789	26.8115	-143.024	10.673	0.970452	
198	1.65	-161.897	40.5954	14.4809	-156.315	57.2553	-9.1344	-160.434	65.6439	-33.2427	-157.803	69.5632	-59.7237	-137.572	45.3679	-54.4111	-134.383	76.8471	-52.1845	-134.431	67.124	-19.1775	-112.577	52.6692	-50.7838	-113.082	79.0586	-33.7396	-127.849	62.1652	-4.72286	-95.1053	50.1137	-39.6349	-100.872	77.3313	-22.154	-116.649	62.8682	1.12544	-79.2092	33.7856	-31.5855	-71.5446	48.204	-48.9329	-63.5347	58.8726	-68.1733	-103.936	7.03637	-5.61837	-113.667	3.42403	26.3691	-140.191	7.3314	6.50121	
199	1.65833	-155.076	37.3572	13.975	-155.43	53.894	-9.52132	-160.019	62.6718	-36.5592	-157.425	67.5738	-55.409	-133.288	47.6489	-54.345	-131.86	75.8014	-47.9809	-137.551	65.6483	-15.832	-114.695	52.8074	-48.9208	-113.816	78.8625	-34.2001	-123.557	63.3993	-2.02593	-97.0231	52.289	-37.975	-103.021	77.4961	-22.13	-115.23	59.7415	4.87252	-75.7735	38.8085	-34.2929	-73.2729	51.525	-46.419	-63.0159	66.4804	-64.4816	-105.05	9.27585	-3.71663	-109.767	2.4342	28.2599	-140.221	6.54997	3.37186	
200	1.66667	-155.973	36.3706	14.348	-156.823	53.5034	-8.21509	-161.964	62.7594	-33.6043	-155.77	66.5826	-55.0901	-132.073	50.0542	-53.0558	-133.58	77.6307	-46.0646	-139.278	65.3663	-13.0839	-110.516	51.1719	-44.1586	-118.399	82.2264	-29.0877	-122.814	62.1156	0.145571	-98.3022	52.5436	-35.2429	-102.12	79.996	-19.9416	-117.145	60.4451	5.9662	-77.9805	40.7336	-29.1521	-72.3902	57.3441	-44.6688	-63.0529	73.5207	-64.5648	-100.491	10.0008	2.00743	-106.038	3.42179	31.0295	-133.545	5.68407	10.2904	
201	1.675	-156.586	36.5763	15.127	-161.889	55.8387	-3.66716	-162.738	62.5862	-28.2257	-159.022	69.1992	-51.162	-131.256	50.1445	-48.5703	-132.549	79.8153	-39.2906	-136.863	66.6042	-12.0606	-113.686	55.2282	-44.189	-118.153	83.2415	-25.6411	-124.534	63.9297	2.74283	-93.4846	59.9642	-34.0524	-103.163	82.324	-12.9967	-114.801	59.0652	10.2483	-74.5856	45.7196	-28.6896	-69.4089	64.3318	-45.1118	-64.7304	79.5643	-60.1877	-97.3664	12.848	-0.890076	-107.05	5.08957	32.4809	-132.753	6.22901	11.0361	
202	1.68333	-156.3	38.2856	20.2951	-154.833	55.3792	-5.43148	-159.953	64.6284	-28.7899	-160.842	73.1717	-50.6849	-134.581	51.3453	-46.8554	-135.483	83.4385	-39.5833	-134.777	68.4514	-10.5466	-114.002	56.8224	-42.1973	-120.309	86.917	-25.1777	-122.086	66.9064	3.83583	-98.2758	61.657	-33.2465	-105.514	85.1425	-16.8374	-115.722	65.0763	9.09267	-75.4002	51.3316	-29.7	-70.7589	65.2609	-40.6876	-64.1444	82.3609	-59.1813	-98.7787	16.5988	-0.868563	-105.799	6.31516	29.7398	-130.488	11.3568	7.40782	
203	1.69167	-155.49	39.8018	17.056	-157.899	59.6401	-5.95287	-161.853	68.5053	-29.7902	-157.443	73.9325	-49.2776	-131.32	54.4674	-46.9188	-135.24	85.1071	-42.0954	-134.156	70.9686	-9.49039	-112.173	59.3362	-40.6837	-118.978	88.6911	-26.2637	-126.274	69.2746	2.60384	-93.5078	64.3664	-30.7264	-106.798	86.6776	-11.4318	-113.561	63.7337	12.7278	-75.1011	51.5532	-24.9609	-70.6046	70.2084	-41.9993	-65.9863	84.4212	-57.1451	-94.3569	19.0717	0.108566	-99.7685	8.60152	32.4857	-132.387	13.3418	7.91795	
